<?xml version="1.0" encoding="utf-8"?>
<!DOCTYPE svg PUBLIC "-//W3C//DTD SVG 1.0//EN" "http://www.w3.org/TR/2001/REC-SVG-20010904/DTD/svg10.dtd">
<svg version="1.0" xmlns="http://www.w3.org/2000/svg" width="921px" height="232px" viewBox="0 0 921 232" preserveAspectRatio="xMidYMid meet">
 <g fill="#000000">
  <path d="M59 166 c0 -1.3 -0.7 -2 -2 -2 -1.7 0 -2 -0.7 -2 -4.5 0 -3.8 0.3 -4.5 2 -4.5 1.3 0 2 -0.7 2 -2 0 -1.6 0.7 -2 3.5 -2 l3.5 0 0 8.5 0 8.5 -3.5 0 c-2.8 0 -3.5 -0.4 -3.5 -2z"/>
  <path d="M11 164.8 c0 -4.3 1.2 -6.8 3.1 -6.8 1.6 0 1.9 0.8 1.9 4.5 0 4.1 -0.2 4.5 -2.5 4.5 -1.9 0 -2.5 -0.5 -2.5 -2.2z"/>
  <path d="M292.5 163.4 c-13.3 -1.7 -23 -4.9 -31.6 -10.5 l-4.8 -3.1 5.6 -7.6 c3.2 -4.2 5.8 -7.9 6 -8.1 0.1 -0.2 1.6 0.7 3.3 1.9 7.9 5.6 27.5 8.8 37.6 6.1 12.3 -3.3 12.6 -15.8 0.4 -19.1 -2.3 -0.6 -8.5 -1.8 -13.7 -2.6 -11.6 -1.7 -16.5 -3 -21.8 -5.6 -10 -5 -15.1 -13.8 -14.3 -24.6 1.3 -17.1 16.5 -27.6 39.8 -27.5 11.3 0 19.7 1.9 29.8 6.9 7 3.4 7.3 3.7 5.9 5.7 -0.8 1.2 -3.1 4.9 -5.2 8.2 l-3.7 6 -7 -3.5 c-6.5 -3.1 -8 -3.5 -17.2 -3.8 -9 -0.3 -10.6 -0.1 -14.6 2 -6 3.1 -7.8 6.4 -6 10.8 1.8 4.4 7 6.5 20.1 8.5 13.1 1.9 19 3.7 25.7 7.5 6.5 3.8 10.8 9.5 12.2 16.5 3.1 15 -5.8 28.3 -22.3 33.4 -6.3 1.9 -18.8 3.2 -24.2 2.5z"/>
  <path d="M376.2 163 c-6.3 -1.3 -10.8 -4.5 -14 -9.8 -2.6 -4.6 -2.7 -5.1 -3 -23.4 l-0.4 -18.8 -5.9 0 -5.9 0 0 -9 0 -9 6 0 6 0 0 -8.4 c0 -9.8 -0.7 -9.1 11.8 -10.2 l8.2 -0.7 0 9.7 0 9.6 9 0 9 0 0 9 0 9 -9.1 0 -9.1 0 0.4 15.1 c0.3 14.7 0.4 15.1 2.8 17.1 2 1.6 3.5 1.9 8.3 1.6 l5.7 -0.4 2.1 7 c1.2 3.9 2.3 7.4 2.5 7.8 0.6 1 -8.5 3.6 -14.6 4.2 -3 0.2 -7.4 0.1 -9.8 -0.4z"/>
  <path d="M433.9 163 c-6.5 -1.1 -11.9 -4.1 -16.8 -9.5 -7.1 -7.7 -8.6 -12.1 -8.6 -25.5 0 -13.5 1.5 -17.9 9 -25.9 6.2 -6.7 12.7 -9.4 22.5 -9.4 8.6 0.1 14.8 2 20.1 6.3 3.9 3.1 4.9 3 4.9 -0.6 0 -5.1 0.6 -5.4 10.1 -5.4 l8.9 0 0 35 0 35 -8.9 0 c-9.5 0 -10.1 -0.3 -10.1 -5.4 0 -3.6 -1 -3.7 -5 -0.6 -6.6 5.2 -17 7.6 -26.1 6z m21.1 -20.2 c5.9 -4.1 7.5 -7.2 7.5 -14.8 0 -7.6 -1.6 -10.7 -7.5 -14.7 -3.9 -2.7 -12.1 -3.1 -17.4 -0.9 -12 5 -12.4 24.9 -0.6 30.8 5.1 2.6 13.8 2.4 18 -0.4z"/>
  <path d="M526.2 163 c-6.3 -1.3 -10.8 -4.5 -14 -9.8 -2.6 -4.6 -2.7 -5.1 -3 -23.4 l-0.4 -18.8 -5.9 0 -5.9 0 0 -9 0 -9 6 0 6 0 0 -8.4 c0 -9.8 -0.7 -9.1 11.8 -10.2 l8.2 -0.7 0 9.7 0 9.6 9 0 9 0 0 9 0 9 -9.1 0 -9.1 0 0.4 15.1 c0.3 14.7 0.4 15.1 2.8 17.1 2 1.6 3.5 1.9 8.3 1.6 l5.7 -0.4 2.1 7 c1.2 3.9 2.3 7.4 2.5 7.8 0.6 1 -8.5 3.6 -14.6 4.2 -3 0.2 -7.4 0.1 -9.8 -0.4z"/>
  <path d="M725.3 163 c-8.1 -1.7 -12.9 -5.4 -15.9 -12.5 -1.4 -3.1 -1.9 -7.8 -2.2 -21.7 l-0.4 -17.8 -5.9 0 -5.9 0 0 -9 0 -9 6 0 6 0 0 -8.4 c0 -9.7 -0.9 -9 12.8 -10.2 l8.2 -0.7 0 9.7 0 9.6 8.5 0 8.5 0 0 9 0 9 -8.5 0 -8.5 0 0 14.4 c0 13.1 0.2 14.6 2.1 17 2 2.6 2.6 2.7 8.2 2.4 l6 -0.3 2.5 7.4 c2.7 8.1 2.6 8.3 -3.8 10 -5.8 1.5 -13.2 2 -17.7 1.1z"/>
  <path d="M785.8 163 c-7 -1.1 -16.2 -5.7 -20.5 -10.2 -1.8 -1.8 -4.4 -6 -6 -9.3 -2.4 -5.2 -2.8 -7.2 -2.8 -15.5 0 -8.2 0.4 -10.3 2.7 -15.1 5.1 -11.1 15.2 -18.1 28.5 -20 10.7 -1.5 22.5 1.5 30.3 7.9 l2.4 2 -5.3 6.1 c-2.9 3.3 -5.6 6.1 -6 6.1 -0.4 0 -2.4 -0.9 -4.6 -2 -5.6 -2.9 -15.1 -2.8 -19.5 0.3 -5.9 4 -7.5 7.1 -7.5 14.7 0 7.6 1.6 10.7 7.5 14.8 4.7 3.2 14.9 3.1 20.6 -0.2 l4.2 -2.4 5.8 6 5.9 6 -3.9 3.4 c-7.2 6.3 -19.8 9.2 -31.8 7.4z"/>
  <path d="M565 112.9 l0 -50.1 27.8 0.4 c25.5 0.4 28.2 0.6 33.7 2.6 7.3 2.7 12 6.4 16.2 12.6 4.2 6.2 5.6 11.4 5.6 20.6 0 9.2 -1.4 14.4 -5.6 20.6 -4.2 6.3 -9 9.9 -16.2 12.6 -5 1.7 -8.9 2.2 -23.2 2.6 l-17.3 0.5 0 13.8 0 13.9 -10.5 0 -10.5 0 0 -50.1z m53.9 0.3 c5.6 -2.8 7.6 -6.4 7.6 -13.7 0 -7.3 -2 -10.9 -7.6 -13.7 -2.8 -1.5 -6.1 -1.8 -18.1 -1.8 l-14.8 0 0 15.5 0 15.5 14.8 0 c12 0 15.3 -0.3 18.1 -1.8z"/>
  <path d="M661 128 l0 -35 10.5 0 10.5 0 0 35 0 35 -10.5 0 -10.5 0 0 -35z"/>
  <path d="M834 113 l0 -50 10 0 10 0 0 19 c0 20.2 0.4 21.6 4.6 16.9 5.2 -5.9 20.2 -8.2 28.9 -4.5 5.5 2.3 10.9 7.9 13.7 14 2.2 4.8 2.3 6.5 2.6 29.9 l0.4 24.7 -10.6 0 -10.6 0 0 -21.1 c0 -23.3 -0.7 -26.7 -6.1 -29.4 -4 -2.1 -11.7 -1.9 -15.6 0.5 -6.1 3.7 -6.7 6.2 -7.1 29.3 l-0.4 20.7 -9.9 0 -9.9 0 0 -50z"/>
  <path d="M97 142.8 c0 -1.3 0.3 -4.7 0.6 -7.5 0.7 -5.2 0.8 -5.3 3.9 -5.3 2.1 0 3.5 0.6 3.9 1.6 1 2.5 0.7 9.4 -0.4 9.4 -0.5 0 -1 0.9 -1 2 0 1.6 -0.7 2 -3.5 2 -3 0 -3.5 -0.3 -3.5 -2.2z"/>
  <path d="M223 85.5 c0 -4.3 0.1 -4.5 3 -4.5 2.9 0 3 0.2 3 4.5 0 4.3 -0.1 4.5 -3 4.5 -2.9 0 -3 -0.2 -3 -4.5z"/>
  <path d="M667.3 84.9 c-4.7 -1.4 -7.3 -5.3 -7.3 -10.9 0 -6 2.6 -9.6 8.1 -11 10.8 -2.9 19.3 6.5 14.7 16.4 -2.2 4.9 -9.2 7.4 -15.5 5.5z"/>
  <path d="M65.3 60.8 c-2.4 -2.4 -4.3 -4.7 -4.3 -5.1 0 -0.4 1.8 -0.7 4 -0.7 4.6 0 5.3 1 4.8 6.4 l-0.3 3.7 -4.2 -4.3z"/>
  <path d="M160 51 c0 -1.6 -0.4 -3 -1 -3 -1.1 0 -1.4 -4.9 -0.4 -7.4 0.9 -2.3 7.4 -2.2 7.5 0.2 0 1 0.3 1.2 0.6 0.5 0.2 -0.7 2 -1.3 3.9 -1.3 3.1 0 3.4 0.2 3.4 3 0 3.8 -2.4 8.6 -4.9 10 -1.1 0.5 -3.6 1 -5.5 1 -3.3 0 -3.6 -0.2 -3.6 -3z"/>
 </g>
 <g fill="#13100f">
  <path d="M26.9 223.1 c-6.7 -1 -11 -3.3 -13.5 -7.5 -1.7 -2.8 -1.9 -5.7 -2.1 -29.1 -0.2 -17.5 0.1 -25.3 0.7 -24 0.8 1.6 0.9 1.3 0.4 -1.2 -0.7 -4.3 2 -8.8 6.6 -11 2.7 -1.3 7.3 -1.8 19.8 -2.1 8.9 -0.3 16.2 -0.5 16.3 -0.6 0 0 0.4 -10.9 0.8 -24.2 0.7 -18.7 1.2 -24.7 2.4 -27.1 1.7 -3.2 6.7 -6.1 12.1 -7 3.1 -0.5 3.4 -0.9 4 -5.1 0.3 -2.4 0.6 -6.6 0.6 -9.1 0 -4.2 -0.5 -5.1 -4 -8.6 -2.5 -2.4 -4 -4.8 -4 -6.3 0 -1.9 -0.4 -2.3 -1.9 -1.9 -1.2 0.3 -2.7 -0.3 -3.7 -1.4 -1.6 -1.7 -3.4 -1.9 -21.8 -1.9 -11.1 0 -21.1 -0.3 -22.3 -0.6 -2.4 -0.7 -3.5 -2.7 -2.7 -4.9 0.5 -1.3 4.1 -1.5 23.7 -1.5 l23.2 0 7.7 7.7 c4.3 4.2 7.9 7.5 8.1 7.2 0.1 -0.2 1.5 -3.5 3.1 -7.3 9.8 -24.5 32.1 -41.6 59.6 -45.7 9.5 -1.3 22.3 -0.7 31.4 1.7 13.9 3.6 31.5 13.9 34.1 19.9 0.8 2 2.9 4.4 4.9 5.6 4.1 2.4 8.6 9.1 12.7 18.9 5.2 12.2 7.6 28 4.4 28 -0.8 0 -1.5 0.7 -1.5 1.5 0 0.8 0.7 1.5 1.5 1.5 2.2 0 1.9 6.4 -0.6 16.3 -5.4 21.4 -19.2 39.9 -37.6 50.3 -3.9 2.2 -6.3 4.2 -6.2 5.2 0 1 2.2 7.6 4.8 14.7 l4.7 13 21.9 0.3 c14.1 0.1 22.3 0.6 23.2 1.3 1.8 1.6 1.6 4.6 -0.3 5.3 -0.9 0.3 -12.1 0.6 -24.9 0.6 -23 0 -23.4 0 -24.9 -2.2 -0.9 -1.2 -3.6 -8.3 -6.1 -15.7 -2.5 -7.5 -4.9 -14.1 -5.3 -14.8 -0.5 -0.8 -2.6 -0.7 -8.2 0.6 l-7.5 1.8 -0.5 23.9 c-0.6 27.4 -1.2 30 -8.6 33.8 -3.5 1.9 -5.7 2.1 -20.4 2.1 -11.2 0 -17.7 -0.4 -20.2 -1.3 -3.1 -1.1 -4.5 -1.1 -7.5 -0.1 -5.3 1.8 -31.6 1.8 -36.6 0.1 -2.8 -1 -4.5 -1.1 -6.9 -0.3 -4 1.4 -25.7 2.2 -32.9 1.2z m119.1 -12 c3.5 -2.6 4.2 -10.4 3.8 -45 -0.4 -27.9 -0.4 -28.4 -2.6 -30.1 -5 -4.1 -30.1 -3.5 -34.4 0.8 -1.8 1.7 -2 3.9 -2.5 24.8 -0.7 28.7 0.2 45.6 2.7 48.6 2.2 2.8 8.7 3.8 21 3.2 7.1 -0.3 10.1 -0.9 12 -2.3z m-93.9 -9.8 c-0.4 -12.6 0 -13.3 7.8 -13.3 5 0 6.1 1.7 6.1 9.8 0 9.7 0.8 12.2 4.6 13.8 3.7 1.6 23 1.9 25.2 0.5 1.1 -0.7 1.3 -4.8 0.7 -21.7 -0.7 -22.2 0.7 -56.1 2.5 -61 0.6 -1.6 2.3 -4.1 3.6 -5.5 2.5 -2.6 2.5 -3 1.9 -11.7 -0.4 -4.9 -1.1 -9.5 -1.5 -10.2 -1.1 -1.8 -7.7 -3 -17 -3 -9.8 0 -16 1.2 -17.6 3.4 -1.5 2.2 -2.5 22.1 -2.5 54 0 15.4 -0.5 27.8 -1 28.8 -1.1 2.1 -9.7 2.6 -11.7 0.6 -0.8 -0.8 -1.2 -5.4 -1.2 -14 l0 -12.8 -12.9 0 c-18.8 0 -17.6 -1.8 -17.6 26.3 0 28.8 -0.7 27.7 19 27.4 l12 -0.2 -0.4 -11.2z m10.8 -42 c-0.1 -3.2 -0.4 -4.8 -0.6 -3.5 -0.3 1.4 -1.2 2.2 -2.4 2.2 -1 0 -1.9 0.7 -1.9 1.5 0 0.8 0.9 1.5 2 1.5 1.3 0 2 0.7 2 2 0 1.1 0.2 2 0.5 2 0.3 0 0.4 -2.6 0.4 -5.7z m107.1 -11.8 c0 -2.8 2.2 -3.7 8.4 -3.4 5.4 0.3 9.7 -2.2 19 -11.4 10.9 -10.7 17.2 -22.5 20.1 -37.9 2.7 -14.4 -1.6 -31.9 -11.4 -46.3 -1.2 -1.7 -2.1 -4.6 -2.1 -6.7 0 -3.3 -0.3 -3.8 -2.3 -3.8 -1.8 0 -2.8 1.2 -5.1 6.8 -4 9.3 -12.9 26.2 -18.9 35.5 -4.8 7.6 -5 7.7 -9 7.7 l-4.2 0 0.3 5.8 0.4 5.7 -8.6 10 c-8.1 9.5 -8.4 10 -6.3 10.9 11.1 4.2 11.7 5.2 12.8 19.9 0.4 6.2 0.8 11.3 0.8 11.4 0.1 0.1 1.5 -0.3 3.1 -0.8 2.2 -0.8 3 -1.7 3 -3.4z m-67 -11 c0 -0.8 -0.4 -1.5 -1 -1.5 -0.5 0 -1 0.7 -1 1.5 0 0.8 0.5 1.5 1 1.5 0.6 0 1 -0.7 1 -1.5z m33.7 -29.4 c5.9 -6.5 12.3 -13.4 14.1 -15.4 2.8 -3.2 3.8 -3.7 8 -3.8 2.6 0 4.1 -0.3 3.5 -0.6 -0.8 -0.3 -1.3 -2.4 -1.3 -5.5 0 -4.3 0.8 -6.4 5.7 -14.6 9 -15.4 19.4 -37.5 18 -38.4 -2.1 -1.3 -2.8 -0.9 -4.3 2.9 -0.9 2.1 -3.2 7.1 -5.1 11.1 -3 6.1 -3.9 7.2 -6 7.2 -2 0 -2.3 -0.3 -1.4 -1.3 1.4 -1.7 0.4 -2.7 -2.6 -2.7 -1.8 0 -2.3 0.5 -2.3 2.6 0 1.9 0.4 2.5 1.5 2 0.9 -0.3 1.5 0 1.5 0.9 0 0.9 -0.9 1.5 -2.2 1.5 -1.7 0 -1.9 0.3 -1 1.2 1.7 1.7 1.5 8.4 -0.4 12.1 -6 11.6 -19.5 28.9 -34.1 43.8 -9.3 9.5 -9.4 9.5 -5.9 9.1 3 -0.4 5.1 -2.1 14.3 -12.1z m-8.3 -21.1 c4 -4.7 10.7 -13.7 15.1 -20 4.3 -6.3 8.4 -11.8 8.9 -12.2 0.6 -0.4 2.2 -0.8 3.6 -0.8 2.4 0 2.5 -0.3 2.2 -4.8 -0.3 -3.9 0.4 -6.6 4.2 -15.1 2.6 -5.7 4.4 -10.6 4.2 -10.8 -1.1 -1.1 -8.7 -2.3 -15.2 -2.3 -17.9 0 -37.9 9.5 -50.8 24.2 -7.5 8.6 -13.1 21.9 -15.1 35.9 l-0.7 4.6 10.5 0.6 c5.8 0.3 12 1.2 13.9 2 4 1.7 7.8 6.1 7.8 9 0 2 0 2 2.2 0.1 1.1 -1 5.3 -5.7 9.2 -10.4z"/>
  <path d="M197.1 175.1 c-2 -3.6 1 -4.5 15.8 -4.9 7.5 -0.2 16.3 0.1 19.6 0.5 5.5 0.7 6 1 6 3.3 l0 2.5 -20.2 0.3 c-19 0.2 -20.3 0.1 -21.2 -1.7z"/>
  <path d="M14.8 35.3 c-1.1 -4.2 -0.4 -4.3 19.7 -4.3 16.2 0 19.4 0.2 19.9 1.5 0.3 0.8 0.3 2.2 0 3 -0.5 1.3 -3.7 1.5 -19.9 1.5 -17.5 0 -19.3 -0.2 -19.7 -1.7z"/>
 </g>
 <g fill="#492a2c">
 </g>
 <g fill="#912c3c">
 </g>
 <g fill="#6d635c">
 </g>
 <g fill="#cb344d">
  <path d="M160.9 155.3 c0 -0.5 -0.4 -5.7 -0.8 -11.8 -0.5 -6 -1.2 -11.8 -1.6 -12.7 -0.6 -1.5 -0.2 -1.8 1.9 -1.8 1.4 0 2.6 0.5 2.6 1.1 0 1.5 8.3 -3.3 14.4 -8.3 11.5 -9.4 20.6 -22.5 25 -36 3.7 -11.1 4.3 -20.3 2.1 -31.6 -0.9 -4.9 -1.5 -9.9 -1.3 -11.3 0.4 -3.4 3.1 -3.5 4.5 -0.2 0.7 1.5 2.8 5.5 4.8 8.8 17.2 29.4 9.5 67.6 -17.9 89.5 -3 2.4 -7.5 5.5 -9.8 6.7 -3.8 2.1 -4.3 2.1 -5.9 0.7 -2.4 -2.2 -5.9 -0.9 -5.9 2.1 0 2 -0.8 2.7 -5.2 4 -5.8 1.7 -6.8 1.8 -6.9 0.8z"/>
 </g>
 <g fill="#ee4661">
  <path d="M159.7 135.4 c-0.3 -0.3 -0.3 -1.2 -0.1 -1.9 0.3 -0.7 -1 -2.8 -2.8 -4.8 -3.4 -3.6 -8.8 -5.7 -14.6 -5.7 l-3.3 0 9.1 -10.1 c12.3 -13.7 14.2 -16.4 13.8 -19.1 -0.5 -3.8 -4.2 -3.5 -8 0.8 -1.8 2.1 -8.1 9 -14.1 15.5 -10.1 11 -11 11.7 -15.3 12.3 -8.5 1.1 -9.4 0.9 -9.4 -2.2 0 -2.1 1.8 -4.5 7.6 -10.2 11 -10.8 22.7 -25 30.5 -36.7 7.9 -11.9 8.7 -13.9 6.6 -16 -2.5 -2.6 -5 -0.6 -11.7 9.5 -8.1 12 -20.1 27 -27.3 34 l-5.4 5.4 -0.7 -4.5 c-1.4 -9.5 -6.6 -12.5 -22.4 -13.4 l-10.5 -0.6 0.6 -7.1 c2.8 -37 31.6 -63.6 68.7 -63.6 10.2 0 21 1.6 21 3.2 0 0.5 -2.3 5.9 -5.1 12.1 -5.9 13 -6.7 15.8 -4.5 17.6 3.5 2.9 6.4 -1.3 15.4 -22.1 1.2 -2.7 2.6 -4.8 3.2 -4.8 0.6 0 2.9 0.9 5.1 2.1 3.6 1.8 4 2.3 3.4 4.7 -1 4.3 -13 28.7 -19.5 39.9 -3.3 5.6 -6 11 -6 12.1 0 1.9 1.8 3.2 4.5 3.2 2.5 0 16.7 -24.3 24.5 -42 2.3 -5.2 4.4 -9.7 4.6 -9.9 0.2 -0.2 1 0.2 1.9 0.9 1.2 1 1.9 1 3.7 -0.2 2.1 -1.4 2.5 -1.3 4.5 1.3 1.8 2.1 2 2.8 0.9 3.2 -2.1 0.8 -2.4 6.3 -0.9 13.6 2.3 10.4 1.3 26.6 -2.2 36.9 -4.7 14 -13.9 27 -25.9 36.6 -7.9 6.3 -18.3 11.6 -19.9 10z"/>
 </g>
 <g fill="#b1a04b">
 </g>
 <g fill="#69c7a7">
  <path d="M23.5 215 c-4.9 -1.9 -5 -2.7 -5 -29.7 l0 -25.5 2.4 -1.9 c2.1 -1.7 4.1 -1.9 18.2 -1.9 l15.9 0 0 12.9 c0 13.7 0.7 15.9 5 14.8 1.8 -0.5 2 0 2 3.8 0 3.6 -0.3 4.2 -1.7 3.9 -1 -0.3 -2.6 0.1 -3.7 0.9 -1.7 1.3 -1.8 2.1 -0.9 11.8 0.7 7.3 0.6 10.6 -0.1 11.1 -1.5 1 -29.6 0.9 -32.1 -0.2z"/>
 </g>
 <g fill="#c080ae">
 </g>
 <g fill="#f8de67">
  <path d="M116.6 216.1 c-7.3 -1.1 -8.3 -2.8 -9.1 -16.8 -0.4 -6.5 -0.5 -23.4 -0.3 -37.7 0.7 -30.3 0.2 -29 11.4 -30.8 9 -1.4 27.8 -0.5 30.8 1.6 1.9 1.2 2.4 2.6 2.9 9.2 0.9 9.6 0.7 56.8 -0.2 64.8 -0.9 8.7 -2.5 9.6 -18.2 10.1 -6.8 0.2 -14.6 0 -17.3 -0.4z"/>
 </g>
 <g fill="#e89ad5">
  <path d="M67.4 214.6 c-3.6 -1.6 -4.4 -4.3 -4.4 -14.2 0 -5.1 -0.4 -6.8 -2 -8.4 -2.5 -2.5 -2.6 -6.4 -0.1 -8.9 1.7 -1.7 1.9 -4.4 2.3 -41.2 0.3 -28.2 0.8 -40 1.6 -41.6 1.8 -3.2 4.9 -3.8 21.2 -3.8 15.4 0 19.4 0.6 20.3 3 0.4 0.8 0.9 6.6 1.3 13 0.7 11.4 0.7 11.6 -1.8 14.3 -1.4 1.5 -3.1 3.8 -3.8 5.1 -2 3.8 -3.3 42.1 -2.2 63.7 0.5 10.4 0.8 19.1 0.5 19.4 -0.2 0.3 -7.1 0.6 -15.1 0.7 -10.8 0.2 -15.5 -0.1 -17.8 -1.1z"/>
 </g>
</svg>